<svg xmlns="http://www.w3.org/2000/svg" xmlns:xlink="http://www.w3.org/1999/xlink" width="600" height="600"><defs><linearGradient id="b"><stop offset="0" stop-color="#ffb380"/><stop offset="1" stop-color="#ffb380" stop-opacity="0"/></linearGradient><linearGradient id="a"><stop offset="0" stop-color="#ffb380"/><stop offset="1" stop-color="#ffb380" stop-opacity="0"/></linearGradient><linearGradient id="c" x1="150" x2="150" y1="897.362" y2="862.362" gradientTransform="translate(-420)" gradientUnits="userSpaceOnUse" xlink:href="#a"/><linearGradient id="d" x1="150" x2="150" y1="897.362" y2="862.362" gradientTransform="translate(-1100 -160)" gradientUnits="userSpaceOnUse" xlink:href="#a"/><linearGradient id="e" x1="150" x2="150" y1="897.362" y2="862.362" gradientTransform="translate(-420)" gradientUnits="userSpaceOnUse" xlink:href="#a"/><linearGradient id="f" x1="150" x2="150" y1="897.362" y2="862.362" gradientTransform="translate(-420)" gradientUnits="userSpaceOnUse" xlink:href="#a"/><linearGradient id="g" x1="150" x2="150" y1="897.362" y2="862.362" gradientTransform="translate(-420)" gradientUnits="userSpaceOnUse" xlink:href="#a"/><linearGradient id="h" x1="150" x2="150" y1="897.362" y2="862.362" gradientTransform="translate(-420)" gradientUnits="userSpaceOnUse" xlink:href="#a"/><linearGradient id="i" x1="140" x2="140" y1="782.362" y2="732.362" gradientTransform="translate(160)" gradientUnits="userSpaceOnUse" xlink:href="#b"/><linearGradient id="j" x1="140" x2="140" y1="782.362" y2="732.362" gradientTransform="translate(760)" gradientUnits="userSpaceOnUse" xlink:href="#b"/><linearGradient id="k" x1="140" x2="140" y1="782.362" y2="732.362" gradientTransform="translate(560 620)" gradientUnits="userSpaceOnUse" xlink:href="#b"/></defs><path fill="#42a5f5" stroke="#42a5f5" d="M0 0h600v600H0z"/><path fill="#fff" fill-rule="evenodd" stroke="#fff" stroke-width="20" d="M260 100l-40 30-20 40h-10l-10 30 7 70h-7l-10 10v50l10 30h10l10 60 20 40 50 40h60l50-40 20-40 10-60h10l10-30v-50l-10-10h-5.715L420 230l-10-30v-20l-20-40-20-20-30-10 10-10h-90z"/><path fill="#fca" fill-rule="evenodd" d="M-1080 250h20v30l-10 20h-10v-40zM-1180 250h-20v30l10 20h10v-40z"/><path fill="#fca" fill-rule="evenodd" d="M-1190 270l10 70 30 30h40l30-30 10-70v-20l-10-40h-100l-10 40z"/><path fill="#36261a" fill-rule="evenodd" d="M-1140 165l-30 5-15 20-5-10v90l10 70 30 30h40l30-30 10-70v-70l-10-20-30-10 5-5zm-30 45h80l10 20 5 20-5 60-10 15-5 15-15 10-10-10v-10h-20v10l-10 10-15-10-5-15-10-15-5-60 5-20z"/><path fill="#36261a" fill-rule="evenodd" d="M-1179.852 251.716l39.407-6.864-1.716-9.852-29.555 5.148zM-1119.555 244.852l1.716-9.852 29.555 5.148 8.136 11.568z"/><path d="M-1165 255h10v15h-10zM-1105 255h10v15h-10z"/><path fill="#ffb380" fill-rule="evenodd" d="M-1140 250l-5 25-10 10-5 25 20-10 25 5 5-15-25-5z"/><path fill="#fca" fill-rule="evenodd" d="M-220 410h20v30l-10 20h-10v-40zM-320 410h-20v30l10 20h10v-40z"/><path fill="#fca" fill-rule="evenodd" d="M-330 430l10 70 30 30h40l30-30 10-70v-20l-10-40-35-5h-30l-35 5-10 40z"/><path fill="#36261a" fill-rule="evenodd" d="M-285 330l-30 5-10 20-5 5v70l10 70 30 30h40l30-30 10-70v-65l-10-20-30-10 5-5zm-25 40l25-5 15 5 15-5 25 5 10 20 5 20-5 60-10 15-5 15-15 10-10-10v-10h-20v10l-10 10-15-10-5-15-10-15-5-60 5-20z"/><path fill="url(#c)" fill-rule="evenodd" d="M-280 862.362v30l-10 10 10 10h20l10-10-10-10v-30z" transform="translate(0 -452.362)"/><path fill="#36261a" fill-rule="evenodd" d="M-270 460h-10l-20 10v10l30-5 30 5v-10l-20-10z"/><path d="M-305 415h10v15h-10zM-245 415h10v15h-10z"/><path fill="#fca" fill-rule="evenodd" d="M-1140 250v30l-10 10 10 10h20l10-10-10-10v-30z"/><path fill="#36261a" fill-rule="evenodd" d="M-1130 300h-10l-20 10v10l30-5 30 5v-10l-20-10z"/><path fill="#fca" fill-rule="evenodd" d="M-900 250h20v30l-10 20h-10v-40zM-1000 250h-20v30l10 20h10v-40z"/><path fill="#fca" fill-rule="evenodd" d="M-1010 270l10 70 30 30h40l30-30 10-70v-20l-10-40h-100l-10 40z"/><path fill="#36261a" fill-rule="evenodd" d="M-960 165l-30 5-15 20-5-10v90l10 70 30 30h40l30-30 10-70v-70l-10-20-30-10 5-5zm-30 45h80l10 20 5 20-5 60-10 15-5 15-15 10-10-10v-10h-20v10l-10 10-15-10-5-15-10-15-5-60 5-20z"/><path fill="url(#d)" fill-rule="evenodd" d="M-960 702.362v30l-10 10 10 10h20l10-10-10-10v-30z" transform="translate(0 -452.362)"/><path fill="#36261a" fill-rule="evenodd" d="M-950 300h-10l-20 10v10l30-5 30 5v-10l-20-10zM-999.852 251.716l39.407-6.864-1.716-9.852-29.555 5.148zM-939.555 244.852l1.716-9.852 29.555 5.148 8.136 11.568z"/><path d="M-985 255h10v15h-10zM-925 255h10v15h-10z"/><path fill="#36261a" fill-rule="evenodd" d="M-320 410h40v-10h-30zM-220 410h-40v-10h30z"/><path fill="#4a9856" d="M-1480-480h600v600h-600z"/><path fill="#fca" fill-rule="evenodd" d="M-1055-223.75h50v75l-25 50h-25v-100zM-1305-223.75h-50v75l25 50h25v-100z"/><path fill="#fca" fill-rule="evenodd" d="M-1330-173.75l25 175 75 75h100l75-75 25-175v-50l-25-100h-250l-25 100z"/><path fill="#36261a" fill-rule="evenodd" d="M-1205-436.25l-75 12.5-37.5 50-12.5-25v225l25 175 75 75h100l75-75 25-175v-175l-25-50-75-25 12.5-12.5zm-75 112.5h200l25 50 12.5 50-12.5 150-25 37.5-12.5 37.5-37.5 25-25-25v-25h-50v25l-25 25-37.5-25-12.5-37.5-25-37.5-12.5-150 12.5-50z"/><path fill="#36261a" fill-rule="evenodd" d="M-1180-98.75h-25l-50 25v25l75-12.5 75 12.5v-25l-50-25zM-1304.63-219.46l98.517-17.16-4.29-24.63-73.887 12.87zM-1153.887-236.62l4.29-24.63 73.887 12.87 20.34 28.92z"/><path d="M-1267.5-211.25h25v37.5h-25zM-1117.5-211.25h25v37.5h-25z"/><text style="line-height:125%" x="-790.703" y="27.274" fill="#fff" font-family="sans-serif" font-size="40" font-weight="400" letter-spacing="0" transform="translate(0 -452.362)" word-spacing="0"><tspan x="-790.703" y="27.274" style="-inkscape-font-specification:'Helvetica Neue Bold'" font-family="Helvetica Neue" font-weight="700">version 1.0</tspan></text><text x="-1462.675" y="26.382" style="line-height:125%" fill="#fff" font-family="sans-serif" font-size="40" font-weight="400" letter-spacing="0" transform="translate(0 -452.362)" word-spacing="0"><tspan style="-inkscape-font-specification:'Helvetica Neue Bold'" x="-1462.675" y="26.382" font-family="Helvetica Neue" font-weight="700">version 2.0</tspan></text><path fill="#4a9856" d="M-600 800h100v100h-100z"/><g opacity=".1"><path d="M-600 816.667v-13.334h100v13.334zM-600 843.333V830h100v13.333zM-600 870v-13.333h100V870zM-600 896.667v-13.334h100v13.334z"/></g><g opacity=".1"><path d="M-516.667 800h13.334v100h-13.334zM-543.333 800H-530v100h-13.333zM-570 800h13.333v100H-570zM-596.667 800h13.334v100h-13.334z"/></g><path fill="#fca" fill-rule="evenodd" d="M-533.333 843.333h6.666v10L-530 860h-3.333v-13.333zM-566.667 843.333h-6.666v10L-570 860h3.333v-13.333z"/><path fill="#fca" fill-rule="evenodd" d="M-570 850l3.333 23.333 10 10h13.334l10-10L-530 850v-6.667L-533.333 830-545 828.333h-10L-566.667 830-570 843.333z"/><path fill="#36261a" fill-rule="evenodd" d="M-555 816.667l-10 1.666-3.333 6.667-1.667 1.667V850l3.333 23.333 10 10h13.334l10-10L-530 850v-21.667l-3.333-6.666-10-3.334 1.666-1.666zM-563.333 830l8.333-1.667 5 1.667 5-1.667 8.333 1.667 3.334 6.667 1.666 6.666-1.666 20-3.334 5-1.666 5-5 3.334-3.334-3.334V870h-6.666v3.333l-3.334 3.334-5-3.334-1.666-5-3.334-5-1.666-20 1.666-6.666z"/><path fill="url(#e)" fill-rule="evenodd" d="M-280 862.362v30l-10 10 10 10h20l10-10-10-10v-30z" transform="matrix(.33333 0 0 .33333 -460 555.88)"/><path fill="#36261a" fill-rule="evenodd" d="M-550 860h-3.333l-6.667 3.333v3.334l10-1.667 10 1.667v-3.334l-6.667-3.333z"/><path d="M-561.667 845h3.334v5h-3.334zM-541.667 845h3.334v5h-3.334z"/><path fill="#36261a" fill-rule="evenodd" d="M-566.667 843.333h13.334V840h-10zM-533.333 843.333h-13.334V840h10z"/><path fill="#fff" d="M-550 806.667A43.333 43.333 0 00-593.333 850 43.333 43.333 0 00-550 893.333 43.333 43.333 0 00-506.667 850 43.333 43.333 0 00-550 806.667zm0 3.333a40 40 0 0140 40 40 40 0 01-40 40 40 40 0 01-40-40 40 40 0 0140-40z"/><path fill="#19cf86" d="M-480 800h100v100h-100z"/><path fill="#fca" fill-rule="evenodd" d="M-413.333 843.333h6.666v10L-410 860h-3.333v-13.333zM-446.667 843.333h-6.666v10L-450 860h3.333v-13.333z"/><path fill="#fca" fill-rule="evenodd" d="M-450 850l3.333 23.333 10 10h13.334l10-10L-410 850v-6.667L-413.333 830-425 828.333h-10L-446.667 830-450 843.333z"/><path fill="#36261a" fill-rule="evenodd" d="M-435 816.667l-10 1.666-3.333 6.667-1.667 1.667V850l3.333 23.333 10 10h13.334l10-10L-410 850v-21.667l-3.333-6.666-10-3.334 1.666-1.666zM-443.333 830l8.333-1.667 5 1.667 5-1.667 8.333 1.667 3.334 6.667 1.666 6.666-1.666 20-3.334 5-1.666 5-5 3.334-3.334-3.334V870h-6.666v3.333l-3.334 3.334-5-3.334-1.666-5-3.334-5-1.666-20 1.666-6.666z"/><path fill="url(#f)" fill-rule="evenodd" d="M-280 862.362v30l-10 10 10 10h20l10-10-10-10v-30z" transform="matrix(.33333 0 0 .33333 -340 555.88)"/><path fill="#36261a" fill-rule="evenodd" d="M-430 860h-3.333l-6.667 3.333v3.334l10-1.667 10 1.667v-3.334l-6.667-3.333z"/><path d="M-441.667 845h3.334v5h-3.334zM-421.667 845h3.334v5h-3.334z"/><path fill="#36261a" fill-rule="evenodd" d="M-446.667 843.333h13.334V840h-10zM-413.333 843.333h-13.334V840h10z"/><path fill="#81f0c3" d="M-463.333 825a5 5 0 00-5 5v13.333a5 5 0 01-5 5h-3.334v3.334h3.334a5 5 0 015 5V870a5 5 0 005 5h10v-3.333h-8.334a1.667 1.667 0 01-1.666-1.667v-15a5 5 0 00-5-5 5 5 0 005-5v-15a1.667 1.667 0 011.666-1.667h8.334V825h-10zM-396.667 825a5 5 0 015 5v13.333a5 5 0 005 5h3.334v3.334h-3.334a5 5 0 00-5 5V870a5 5 0 01-5 5h-10v-3.333h8.334a1.667 1.667 0 001.666-1.667v-15a5 5 0 015-5 5 5 0 01-5-5v-15a1.667 1.667 0 00-1.666-1.667h-8.334V825h10z"/><path d="M620 0h600v600H620z"/><path fill="#42a5f5" d="M-360 800h100v100h-100z"/><path fill="#fca" fill-rule="evenodd" d="M-293.333 843.333h6.666v10L-290 860h-3.333v-13.333zM-326.667 843.333h-6.666v10L-330 860h3.333v-13.333z"/><path fill="#fca" fill-rule="evenodd" d="M-330 850l3.333 23.333 10 10h13.334l10-10L-290 850v-6.667L-293.333 830-305 828.333h-10L-326.667 830-330 843.333z"/><path fill="#36261a" fill-rule="evenodd" d="M-315 816.667l-10 1.666-3.333 6.667-1.667 1.667V850l3.333 23.333 10 10h13.334l10-10L-290 850v-21.667l-3.333-6.666-10-3.334 1.666-1.666zM-323.333 830l8.333-1.667 5 1.667 5-1.667 8.333 1.667 3.334 6.667 1.666 6.666-1.666 20-3.334 5-1.666 5-5 3.334-3.334-3.334V870h-6.666v3.333l-3.334 3.334-5-3.334-1.666-5-3.334-5-1.666-20 1.666-6.666z"/><path fill="url(#g)" fill-rule="evenodd" d="M-280 862.362v30l-10 10 10 10h20l10-10-10-10v-30z" transform="matrix(.33333 0 0 .33333 -220 555.88)"/><path fill="#36261a" fill-rule="evenodd" d="M-310 860h-3.333l-6.667 3.333v3.334l10-1.667 10 1.667v-3.334l-6.667-3.333z"/><path d="M-321.667 845h3.334v5h-3.334zM-301.667 845h3.334v5h-3.334z"/><path fill="#36261a" fill-rule="evenodd" d="M-326.667 843.333h13.334V840h-10zM-293.333 843.333h-13.334V840h10z"/><path fill="#fca" fill-rule="evenodd" d="M-180 840h10v15l-5 10h-5v-20zM-230 840h-10v15l5 10h5v-20z"/><path fill="#fca" fill-rule="evenodd" d="M-235 850l5 35 15 15h20l15-15 5-35v-10l-5-20-17.5-2.5h-15L-230 820l-5 20z"/><path fill="#36261a" fill-rule="evenodd" d="M-212.5 800l-15 2.5-5 10-2.5 2.5v35l5 35 15 15h20l15-15 5-35v-32.5l-5-10-15-5 2.5-2.5zm-12.5 20l12.5-2.5 7.5 2.5 7.5-2.5 12.5 2.5 5 10 2.5 10-2.5 30-5 7.5-2.5 7.5-7.5 5-5-5v-5h-10v5l-5 5-7.5-5-2.5-7.5-5-7.5-2.5-30 2.5-10z"/><path fill="url(#h)" fill-rule="evenodd" d="M-280 862.362v30l-10 10 10 10h20l10-10-10-10v-30z" transform="matrix(.5 0 0 .5 -70 408.819)"/><path fill="#36261a" fill-rule="evenodd" d="M-205 865h-5l-10 5v5l15-2.5 15 2.5v-5l-10-5z"/><path d="M-222.5 842.5h5v7.5h-5zM-192.5 842.5h5v7.5h-5z"/><path fill="#36261a" fill-rule="evenodd" d="M-230 840h20v-5h-15zM-180 840h-20v-5h15z"/><text style="line-height:125%" x="-582.675" y="1226.382" font-family="sans-serif" font-size="40" font-weight="400" letter-spacing="0" transform="translate(0 -452.362)" word-spacing="0"><tspan x="-582.675" y="1226.382" style="-inkscape-font-specification:'Helvetica Neue Bold'" font-family="Helvetica Neue" font-weight="700">version 3.0</tspan></text><path fill="#fca" fill-rule="evenodd" d="M20 890l-10 10v50l10 30h20v-90z"/><path fill="#241c1c" fill-rule="evenodd" d="M20 820l10-30h10l20-40 40-30h70l20 10 30 30 30 40v20l10 30-10 70H30z"/><path fill="#fca" fill-rule="evenodd" d="M140 1120h-20l-60-40-20-40-10-60v-80l10-60 20-40 40-20 40 10z"/><path fill="#241c1c" fill-rule="evenodd" d="M140 1000H60l10-20 50-10h20z"/><path fill="#e9afaf" fill-rule="evenodd" d="M140 980h-10l-10-10h-20v-20l20-20 10-40h10z"/><path fill="#241c1c" fill-rule="evenodd" d="M120 880H70l-30 10 30-30h60v10z"/><path fill="#e9afaf" fill-rule="evenodd" stroke="#000" d="M260 890l10 10v50l-10 30h-20v-90z"/><path fill="#fca" fill-rule="evenodd" stroke="#000" d="M140 1120h20l60-40 20-40 10-60v-80l-10-60-20-40-40-20-40 10z"/><path fill="#1a1a1a" fill-rule="evenodd" stroke="#000" d="M140 1000h80l-10-20-50-10h-20z"/><path fill="#e9afaf" fill-rule="evenodd" stroke="#000" d="M140 980h10l10-10h20v-20l-20-20-10-40h-10z"/><path fill="#ffb380" fill-rule="evenodd" stroke="#000" d="M210 1010l-40 10h-30v10h40z"/><path fill="none" stroke="#000" d="M170 1030l-10 10v20h20l20-10 30-30 20-30v-80h0"/><path fill="#ffb380" fill-rule="evenodd" stroke="#000" d="M160 910l20 20h30l10-10h20l-20-10 20-10h-70z"/><path fill="none" stroke="#000" d="M160 880h50l30 10-30-30h-30l-10 10h-20zM210 1000l-30 10h-40 0"/><path fill-rule="evenodd" d="M80 920l5-5h10v-25H85l-5 5z"/><path fill="#ffb380" fill-rule="evenodd" d="M95 915H70l-4.836 2.418L50 925l25-5h30z"/><path fill="#241c1c" fill-rule="evenodd" d="M115 1030l5 10v20h-20l-20-10-30-30-15-35-5-105v100l10 60 20 40 50 40h30v-90z"/><path fill="#ffb380" fill-rule="evenodd" d="M80 1000l20 15 15 5h25v-10h-20l-25-5zM65 980l10-10 20-15-25 10zM50 985v20l10 15-15-15z"/><g fill-rule="evenodd"><path fill="#fca" d="M540 890l10 10v50l-10 30h-20v-90z"/><path fill="#ffb380" d="M530 960v-15l10-15-10-15v-15h10l5 10v30z"/><path fill="#fca" d="M300 890l-10 10v50l10 30h20v-90z"/><path fill="#ffb380" d="M310 960v-15l-10-15 10-15v-15h-10l-5 10v30z"/><path fill="#28170b" d="M300 820l10-30h10l20-40 40-30h90l-10 10 30 10 20 20 20 40v20l10 30-10 70H310z"/><path fill="#fca" d="M380 780l-40 20-20 40-5.037 30.223L315 920l-5 60 10 60 20 40 60 40h40l60-40 20-40 10-60-5-60 .106-49.366L520 840l-20-40-40-20-40 10z"/><path fill="#28170b" d="M400 970l-50 10-10 20h160l-10-20-50-10h-40zM400 880h-50l-30 10 30-30h50l5 5 5-5v10zM440 880h50l30 10-30-30h-50l-10 10z"/><path fill="#ffb380" d="M465 915h25l4.836 2.418L510 925l-25-5h-30z"/><path fill="url(#i)" d="M290 702.362l-10 60-20 20v15l20 5 10 10h20l10-10 20-5v-15l-20-20-10-60z" transform="translate(120 167.638)"/><path fill="#ffb380" d="M360 1000l15 5 25 5h40l25-5 15-5H360zm20 15l15 15h50l15-15-15 5h-50l-15-5zM380 915h-30l-4.836 2.418L330 925l25-5h30z"/><path fill="#28170b" d="M315 920h-5v60l10 60 20 40 50 40h60l50-40 20-40 10-60v-60h-5v65l-15 35-20 30-30 10h-20l-10-20 15-10h-50l15 10-10 20h-20l-30-10-20-30-15-35z"/><path fill="#ffb380" d="M375 955l-25 25 5-15zM465 955l25 25-5-15z"/><path d="M375 915h-15v-20l5-5h10zM465 915h15v-20l-5-5h-10z"/></g><path fill="#fff" d="M620 0v300A300 300 0 01920 0H620zm300 0a300 300 0 01300 300V0H920zm300 300a300 300 0 01-300 300h300V300zM920 600a300 300 0 01-300-300v300h300z"/><g fill-rule="evenodd"><path fill="#fca" d="M420 270l10 10v50l-10 30h-20v-90z"/><path fill="#ffb380" d="M410 340v-15l10-15-10-15v-15h10l5 10v30z"/><path fill="#fca" d="M180 270l-10 10v50l10 30h20v-90z"/><path fill="#ffb380" d="M190 340v-15l-10-15 10-15v-15h-10l-5 10v30z"/><path fill="#28170b" d="M180 200l10-30h10l20-40 40-30h90l-10 10 30 10 20 20 20 40v20l10 30-10 70H190z"/><path fill="#fca" d="M260 160l-40 20-20 40-5.037 30.223L195 300l-5 60 10 60 20 40 60 40h40l60-40 20-40 10-60-5-60 .106-49.366L400 220l-20-40-40-20-40 10z"/><path fill="#28170b" d="M280 350l-50 10-10 20h160l-10-20-50-10zM280 260h-50l-30 10 30-30h50l5 5 5-5v10zM320 260h50l30 10-30-30h-50l-10 10z"/><path fill="url(#j)" d="M890 702.362l-10 60-20 20v15l20 5 10 10h20l10-10 20-5v-15l-20-20-10-60z" transform="translate(-600 -452.362)"/><path fill="#ffb380" d="M240 380l15 5 25 5h40l25-5 15-5H240zm20 15l15 15h50l15-15-15 5h-50l-15-5z"/><path fill="#28170b" d="M195 300h-5v60l10 60 20 40 50 40h60l50-40 20-40 10-60v-60h-5v65l-15 35-20 30-30 10h-20l-10-20 15-10h-50l15 10-10 20h-20l-30-10-20-30-15-35z"/><path d="M255 295h-15v-20l5-5h10zM345 295h15v-20l-5-5h-10z"/><path fill="#ffb380" d="M260 295h-30l-20 10h55v-5zM340 295h30l20 10h-55v-5z"/></g><path fill="#fca" fill-rule="evenodd" d="M820 890l10 10v50l-10 30h-20v-90z"/><path fill="#ffb380" fill-rule="evenodd" d="M810 960v-15l10-15-10-15v-15h10l5 10v30z"/><path fill="#fca" fill-rule="evenodd" d="M580 890l-10 10v50l10 30h20v-90z"/><path fill="#ffb380" fill-rule="evenodd" d="M590 960v-15l-10-15 10-15v-15h-10l-5 10v30z"/><path fill="#28170b" fill-rule="evenodd" d="M580 820l10-30h10l20-40 40-30h90l-10 10 30 10 20 20 20 40v20l10 30-10 70H590z"/><path fill="#fca" fill-rule="evenodd" d="M660 780l-40 20-20 40-5.037 30.223L595 920l-5 60 10 60 20 40 60 40h40l60-40 20-40 10-60-5-60 .106-49.366L800 840l-20-40-40-20-40 10z"/><path fill="#28170b" fill-rule="evenodd" d="M680 970l-50 10-10 20h160l-10-20-50-10zM680 880h-50l-30 10 30-30h50l5 5 5-5v10zM720 880h50l30 10-30-30h-50l-10 10z"/><path fill="url(#k)" fill-rule="evenodd" d="M690 1322.362l-10 60-20 20v15l20 5 10 10h20l10-10 20-5v-15l-20-20-10-60z" transform="translate(0 -452.362)"/><path fill="#ffb380" fill-rule="evenodd" d="M640 1000l15 5 25 5h40l25-5 15-5H640zm20 15l15 15h50l15-15-15 5h-50l-15-5z"/><path fill="#28170b" fill-rule="evenodd" d="M595 920h-5v60l10 60 20 40 50 40h60l50-40 20-40 10-60v-60h-5v65l-15 35-20 30-30 10h-20l-10-20 15-10h-50l15 10-10 20h-20l-30-10-20-30-15-35z"/><path fill-rule="evenodd" d="M655 915h-15v-20l5-5h10zM745 915h15v-20l-5-5h-10z"/><path fill="#ffb380" fill-rule="evenodd" d="M660 915h-30l-20 10h55v-5zM740 915h30l20 10h-55v-5z"/><text x="17.325" y="1146.382" style="line-height:125%" font-family="sans-serif" font-size="40" font-weight="400" letter-spacing="0" transform="translate(0 -452.362)" word-spacing="0"><tspan style="-inkscape-font-specification:'Helvetica Neue Bold'" x="17.325" y="1146.382" font-family="Helvetica Neue" font-weight="700">version 4.0</tspan></text></svg>